<svg width="38" height="26" viewBox="0 0 38 26" fill="none" xmlns="http://www.w3.org/2000/svg">
<g clip-path="url(#clip0_301_503)">
<path d="M35.928 12.7683L30.4585 11.0555L27.6935 2.4028C27.2444 1.01788 25.9084 0.0864258 24.37 0.0864258H17.7066C17.6788 0.0864258 17.6511 0.0910218 17.6233 0.0940857L8.01201 0.114002C7.7409 0.114002 7.50735 0.294777 7.45346 0.544491L6.26287 6.08417C6.26287 6.08417 6.25797 6.09796 6.25634 6.10562L5.18987 11.1137L1.77651 12.7146C0.987682 13.0838 0.496094 13.8284 0.496094 14.6541V22.3309C0.496094 22.9284 1.01545 23.4156 1.65239 23.4156H5.74842C6.55031 24.7101 8.04141 25.5864 9.74972 25.5864C11.458 25.5864 12.9491 24.7117 13.751 23.4156H24.8354C25.6373 24.7101 27.1284 25.5864 28.8367 25.5864C30.5451 25.5864 32.0362 24.7117 32.838 23.4156H36.3559C36.9929 23.4156 37.5122 22.9284 37.5122 22.3309V14.8227C37.5122 13.8835 36.8753 13.0578 35.9313 12.7667L35.928 12.7683ZM1.64912 15.8215H3.38356C3.70204 15.8215 3.96171 16.0651 3.96171 16.3638V19.077H1.64912V15.8215ZM5.27153 22.3325H1.64912V20.1616H5.27153C5.17517 20.5094 5.11964 20.871 5.11964 21.2463C5.11964 21.6216 5.1768 21.9832 5.27153 22.3309V22.3325ZM9.74645 24.5018C7.83236 24.5018 6.27593 23.0418 6.27593 21.2463C6.27593 19.4508 7.83236 17.9908 9.74645 17.9908C11.6605 17.9908 13.217 19.4508 13.217 21.2463C13.217 23.0418 11.6605 24.5018 9.74645 24.5018ZM24.3586 22.3325H14.2214C14.3177 21.9847 14.3733 21.6232 14.3733 21.2478C14.3733 20.8725 14.3161 20.5109 14.2214 20.1632H24.3586C24.2622 20.5109 24.2067 20.8725 24.2067 21.2478C24.2067 21.6232 24.2638 21.9847 24.3586 22.3325ZM28.8335 24.5018C26.9194 24.5018 25.363 23.0418 25.363 21.2463C25.363 19.4508 26.9194 17.9908 28.8335 17.9908C30.7476 17.9908 32.304 19.4508 32.304 21.2463C32.304 23.0418 30.7476 24.5018 28.8335 24.5018ZM36.3527 22.3325H33.3084C33.4048 21.9847 33.4603 21.6232 33.4603 21.2478C33.4603 20.8725 33.4048 20.5109 33.3084 20.1632H36.3527V22.334V22.3325ZM36.3527 19.077H32.8348C32.0329 17.7825 30.5418 16.9062 28.8335 16.9062C27.1252 16.9062 25.6341 17.7809 24.8322 19.077H13.7478C12.9459 17.7825 11.4548 16.9062 9.74645 16.9062C8.03814 16.9062 6.54704 17.7809 5.74515 19.077H5.11964V16.3638C5.11964 15.4661 4.34061 14.7369 3.3852 14.7369H1.64912V14.6557C1.64912 14.2436 1.8941 13.8728 2.28933 13.6874L5.95583 11.967C6.11588 11.892 6.22857 11.7525 6.2645 11.5886L7.3865 6.3201C7.39467 6.28486 7.39793 6.24963 7.39793 6.21439L8.4791 1.18793L17.6478 1.16801C17.6674 1.16954 17.6854 1.17261 17.705 1.17261H24.3684C25.3956 1.17261 26.2857 1.7946 26.5846 2.71686L29.4361 11.6361C29.49 11.8046 29.6288 11.9394 29.8069 11.9946L32.8821 12.9567V14.7353C32.8821 15.9318 33.9192 16.9062 35.1964 16.9062H36.3527V19.077ZM36.3527 15.8215H35.1964C34.5594 15.8215 34.0401 15.3343 34.0401 14.7369V13.3213L35.5655 13.7993C36.0358 13.9433 36.3527 14.3554 36.3527 14.8242V15.823V15.8215Z" fill="#FBFBFB"/>
<path d="M9.74616 19.6191C8.78911 19.6191 8.01172 20.3499 8.01172 21.2461C8.01172 22.1423 8.79075 22.8731 9.74616 22.8731C10.7016 22.8731 11.4806 22.1423 11.4806 21.2461C11.4806 20.3499 10.7016 19.6191 9.74616 19.6191ZM9.74616 21.79C9.42769 21.79 9.16801 21.5464 9.16801 21.2476C9.16801 20.9489 9.42769 20.7053 9.74616 20.7053C10.0646 20.7053 10.3243 20.9489 10.3243 21.2476C10.3243 21.5464 10.0646 21.79 9.74616 21.79Z" fill="#FBFBFB"/>
<path d="M28.8321 19.6191C27.8751 19.6191 27.0977 20.3499 27.0977 21.2461C27.0977 22.1423 27.8767 22.8731 28.8321 22.8731C29.7875 22.8731 30.5665 22.1423 30.5665 21.2461C30.5665 20.3499 29.7875 19.6191 28.8321 19.6191ZM28.8321 21.79C28.5136 21.79 28.254 21.5464 28.254 21.2476C28.254 20.9489 28.5136 20.7053 28.8321 20.7053C29.1506 20.7053 29.4102 20.9489 29.4102 21.2476C29.4102 21.5464 29.1506 21.79 28.8321 21.79Z" fill="#FBFBFB"/>
<path d="M16.109 2.80102H14.9527C14.9233 2.80102 14.8972 2.80562 14.8694 2.80868L10.3128 2.75659C10.0368 2.75659 9.79839 2.93583 9.74449 3.19015L8.82337 7.60228C8.82011 7.61454 8.82174 7.62679 8.82011 7.63905L8.02311 11.3756C7.98882 11.5349 8.03291 11.7004 8.14234 11.826C8.25176 11.9516 8.41671 12.0251 8.58983 12.0251H16.109C16.4291 12.0251 16.6872 11.7831 16.6872 11.4828V3.34334C16.6872 3.04307 16.4291 2.80102 16.109 2.80102ZM9.29536 10.939L9.97967 7.7279C9.98947 7.68348 9.9911 7.63905 9.98783 7.59615L10.7734 3.83511L14.9005 3.88107C14.9168 3.88107 14.9331 3.88567 14.9511 3.88567H15.3202L15.5292 3.88873V10.939H9.29373H9.29536Z" fill="#FBFBFB"/>
<path d="M24.7557 3.17177C24.6773 2.94963 24.4568 2.80103 24.2069 2.80103H19.002C18.6819 2.80103 18.4238 3.04308 18.4238 3.34335V11.4813C18.4238 11.7816 18.6819 12.0236 19.002 12.0236H27.0993C27.2855 12.0236 27.4602 11.9394 27.568 11.7984C27.6758 11.6575 27.7068 11.4752 27.6464 11.3097L24.7541 3.17177H24.7557ZM19.5801 10.939V3.88568H23.7905L26.2958 10.939H19.5801Z" fill="#FBFBFB"/>
<path d="M15.531 13.1084H13.2168C12.8967 13.1084 12.6387 13.3505 12.6387 13.6507C12.6387 13.951 12.8967 14.193 13.2168 14.193H15.531C15.8511 14.193 16.1092 13.951 16.1092 13.6507C16.1092 13.3505 15.8511 13.1084 15.531 13.1084Z" fill="#FBFBFB"/>
<path d="M21.3142 13.1084H19C18.6799 13.1084 18.4219 13.3505 18.4219 13.6507C18.4219 13.951 18.6799 14.193 19 14.193H21.3142C21.6343 14.193 21.8924 13.951 21.8924 13.6507C21.8924 13.3505 21.6343 13.1084 21.3142 13.1084Z" fill="#FBFBFB"/>
</g>
<defs>
<clipPath id="clip0_301_503">
<rect width="37.0161" height="25.5" fill="white" transform="translate(0.492188 0.0878906)"/>
</clipPath>
</defs>
</svg>
