<svg width="70" height="51" viewBox="0 0 70 51" fill="none" xmlns="http://www.w3.org/2000/svg">
<g clip-path="url(#clip0_126_100)">
<path d="M67.0104 25.3606L56.6671 21.9351L51.4383 4.62968C50.589 1.85983 48.0626 -0.00306702 45.1533 -0.00306702H32.5524C32.4999 -0.00306702 32.4474 0.00612493 32.3949 0.0122529L14.2193 0.0520847C13.7066 0.0520847 13.2649 0.413635 13.163 0.913064L10.9115 11.9924C10.9115 11.9924 10.9023 12.02 10.8992 12.0353L8.88241 22.0515L2.42752 25.2533C0.935792 25.9918 0.00616455 27.4809 0.00616455 29.1324V44.486C0.00616455 45.6809 0.988296 46.6553 2.1928 46.6553H9.93866C11.4551 49.2443 14.2749 50.9969 17.5054 50.9969C20.7359 50.9969 23.5557 49.2474 25.0721 46.6553H46.0335C47.55 49.2443 50.3697 50.9969 53.6003 50.9969C56.8308 50.9969 59.6506 49.2474 61.167 46.6553H67.8195C69.024 46.6553 70.0062 45.6809 70.0062 44.486V29.4694C70.0062 27.5912 68.8017 25.9397 67.0165 25.3575L67.0104 25.3606ZM2.18662 31.4671H5.46657C6.06882 31.4671 6.55988 31.9543 6.55988 32.5518V37.9781H2.18662V31.4671ZM9.03683 44.489H2.18662V40.1474H9.03683C8.85461 40.8429 8.7496 41.566 8.7496 42.3167C8.7496 43.0673 8.8577 43.7904 9.03683 44.486V44.489ZM17.4992 48.8276C13.8795 48.8276 10.9362 45.9077 10.9362 42.3167C10.9362 38.7257 13.8795 35.8057 17.4992 35.8057C21.1189 35.8057 24.0622 38.7257 24.0622 42.3167C24.0622 45.9077 21.1189 48.8276 17.4992 48.8276ZM45.1317 44.489H25.9616C26.1438 43.7935 26.2488 43.0704 26.2488 42.3197C26.2488 41.5691 26.1407 40.846 25.9616 40.1504H45.1317C44.9495 40.846 44.8445 41.5691 44.8445 42.3197C44.8445 43.0704 44.9526 43.7935 45.1317 44.489ZM53.5941 48.8276C49.9744 48.8276 47.0311 45.9077 47.0311 42.3167C47.0311 38.7257 49.9744 35.8057 53.5941 35.8057C57.2138 35.8057 60.1571 38.7257 60.1571 42.3167C60.1571 45.9077 57.2138 48.8276 53.5941 48.8276ZM67.8134 44.489H62.0565C62.2387 43.7935 62.3437 43.0704 62.3437 42.3197C62.3437 41.5691 62.2387 40.846 62.0565 40.1504H67.8134V44.4921V44.489ZM67.8134 37.9781H61.1608C59.6444 35.389 56.8246 33.6364 53.5941 33.6364C50.3635 33.6364 47.5438 35.3859 46.0273 37.9781H25.066C23.5495 35.389 20.7297 33.6364 17.4992 33.6364C14.2687 33.6364 11.4489 35.3859 9.93248 37.9781H8.7496V32.5518C8.7496 30.7563 7.2764 29.2978 5.46965 29.2978H2.18662V29.1354C2.18662 28.3112 2.64989 27.5697 3.3973 27.199L10.3309 23.7581C10.6336 23.608 10.8467 23.3292 10.9146 23.0013L13.0364 12.4643C13.0518 12.3938 13.058 12.3233 13.058 12.2529L15.1026 2.19994L32.4412 2.16011C32.4783 2.16317 32.5122 2.1693 32.5493 2.1693H45.1502C47.0929 2.1693 48.7761 3.41327 49.3413 5.25779L54.7337 23.0963C54.8356 23.4333 55.0982 23.703 55.4348 23.8133L61.2504 25.7375V29.2947C61.2504 31.6877 63.2115 33.6364 65.6267 33.6364H67.8134V37.9781ZM67.8134 31.4671H65.6267C64.4222 31.4671 63.4401 30.4928 63.4401 29.2978V26.4667L66.3247 27.4226C67.2142 27.7107 67.8134 28.5349 67.8134 29.4725V31.4702V31.4671Z" fill="#EBEBE2"/>
<path d="M17.4992 39.0627C15.6894 39.0627 14.2193 40.5242 14.2193 42.3167C14.2193 44.1091 15.6925 45.5706 17.4992 45.5706C19.306 45.5706 20.7792 44.1091 20.7792 42.3167C20.7792 40.5242 19.306 39.0627 17.4992 39.0627ZM17.4992 43.4044C16.897 43.4044 16.4059 42.9172 16.4059 42.3197C16.4059 41.7223 16.897 41.2351 17.4992 41.2351C18.1015 41.2351 18.5926 41.7223 18.5926 42.3197C18.5926 42.9172 18.1015 43.4044 17.4992 43.4044Z" fill="#EBEBE2"/>
<path d="M53.5941 39.0627C51.7843 39.0627 50.3141 40.5242 50.3141 42.3167C50.3141 44.1091 51.7873 45.5706 53.5941 45.5706C55.4008 45.5706 56.874 44.1091 56.874 42.3167C56.874 40.5242 55.4008 39.0627 53.5941 39.0627ZM53.5941 43.4044C52.9918 43.4044 52.5008 42.9172 52.5008 42.3197C52.5008 41.7223 52.9918 41.2351 53.5941 41.2351C54.1963 41.2351 54.6874 41.7223 54.6874 42.3197C54.6874 42.9172 54.1963 43.4044 53.5941 43.4044Z" fill="#EBEBE2"/>
<path d="M29.5319 5.42632H27.3453C27.2897 5.42632 27.2402 5.43551 27.1877 5.44164L18.5709 5.33746C18.049 5.33746 17.5981 5.69595 17.4961 6.20457L15.7543 15.0288C15.7481 15.0534 15.7512 15.0779 15.7481 15.1024L14.2409 22.5754C14.1761 22.8941 14.2594 23.225 14.4664 23.4762C14.6733 23.7275 14.9852 23.8746 15.3126 23.8746H29.5319C30.1372 23.8746 30.6252 23.3905 30.6252 22.7899V6.51097C30.6252 5.91043 30.1372 5.42632 29.5319 5.42632ZM16.6468 21.7022L17.9409 15.2801C17.9594 15.1912 17.9625 15.1024 17.9563 15.0166L19.4419 7.49451L27.2464 7.58643C27.2773 7.58643 27.3082 7.59562 27.3422 7.59562H28.0402L28.4355 7.60175V21.7022H16.6437H16.6468Z" fill="#EBEBE2"/>
<path d="M45.8822 6.1678C45.7339 5.72352 45.317 5.42632 44.8444 5.42632H35.0015C34.3962 5.42632 33.9082 5.91042 33.9082 6.51097V22.7868C33.9082 23.3874 34.3962 23.8715 35.0015 23.8715H50.3141C50.6662 23.8715 50.9967 23.703 51.2005 23.4211C51.4043 23.1392 51.463 22.7746 51.3487 22.4437L45.8791 6.1678H45.8822ZM36.0948 21.7022V7.59562H44.0569L48.7946 21.7022H36.0948Z" fill="#EBEBE2"/>
<path d="M28.4385 26.0408H24.0622C23.4568 26.0408 22.9689 26.5249 22.9689 27.1254C22.9689 27.726 23.4568 28.2101 24.0622 28.2101H28.4385C29.0439 28.2101 29.5319 27.726 29.5319 27.1254C29.5319 26.5249 29.0439 26.0408 28.4385 26.0408Z" fill="#EBEBE2"/>
<path d="M39.3748 26.0408H34.9985C34.3931 26.0408 33.9052 26.5249 33.9052 27.1254C33.9052 27.726 34.3931 28.2101 34.9985 28.2101H39.3748C39.9802 28.2101 40.4681 27.726 40.4681 27.1254C40.4681 26.5249 39.9802 26.0408 39.3748 26.0408Z" fill="#EBEBE2"/>
</g>
<defs>
<clipPath id="clip0_126_100">
<rect width="70" height="51" fill="white"/>
</clipPath>
</defs>
</svg>
