<svg width="47" height="47" viewBox="0 0 47 47" fill="none" xmlns="http://www.w3.org/2000/svg">
<g clip-path="url(#clip0_301_629)">
<path d="M23.5 4.23184C29.7789 4.23184 30.5225 4.25937 32.9918 4.36953C35.2867 4.47051 36.526 4.85605 37.3521 5.17734C38.4445 5.59961 39.234 6.11367 40.051 6.93066C40.8772 7.75684 41.382 8.53711 41.8043 9.62949C42.1256 10.4557 42.5111 11.7041 42.6121 13.9898C42.7223 16.4684 42.7498 17.2119 42.7498 23.4816C42.7498 29.7605 42.7223 30.5041 42.6121 32.9734C42.5111 35.2684 42.1256 36.5076 41.8043 37.3338C41.382 38.4262 40.868 39.2156 40.051 40.0326C39.2248 40.8588 38.4445 41.3637 37.3521 41.7859C36.526 42.1072 35.2775 42.4928 32.9918 42.5938C30.5133 42.7039 29.7697 42.7314 23.5 42.7314C17.2211 42.7314 16.4775 42.7039 14.0082 42.5938C11.7133 42.4928 10.474 42.1072 9.64785 41.7859C8.55547 41.3637 7.76602 40.8496 6.94902 40.0326C6.12285 39.2064 5.61797 38.4262 5.1957 37.3338C4.87441 36.5076 4.48887 35.2592 4.38789 32.9734C4.27773 30.4949 4.2502 29.7514 4.2502 23.4816C4.2502 17.2027 4.27773 16.4592 4.38789 13.9898C4.48887 11.6949 4.87441 10.4557 5.1957 9.62949C5.61797 8.53711 6.13203 7.74766 6.94902 6.93066C7.7752 6.10449 8.55547 5.59961 9.64785 5.17734C10.474 4.85605 11.7225 4.47051 14.0082 4.36953C16.4775 4.25937 17.2211 4.23184 23.5 4.23184ZM23.5 0C17.1201 0 16.3215 0.0275391 13.8154 0.137695C11.3186 0.247852 9.60195 0.651758 8.11484 1.23008C6.56348 1.83594 5.25078 2.63457 3.94727 3.94727C2.63457 5.25078 1.83594 6.56348 1.23008 8.10566C0.651758 9.60195 0.247852 11.3094 0.137695 13.8062C0.0275391 16.3215 0 17.1201 0 23.5C0 29.8799 0.0275391 30.6785 0.137695 33.1846C0.247852 35.6814 0.651758 37.398 1.23008 38.8852C1.83594 40.4365 2.63457 41.7492 3.94727 43.0527C5.25078 44.3562 6.56348 45.1641 8.10567 45.7607C9.60195 46.3391 11.3094 46.743 13.8063 46.8531C16.3123 46.9633 17.1109 46.9908 23.4908 46.9908C29.8707 46.9908 30.6693 46.9633 33.1754 46.8531C35.6723 46.743 37.3889 46.3391 38.876 45.7607C40.4182 45.1641 41.7309 44.3562 43.0344 43.0527C44.3379 41.7492 45.1457 40.4365 45.7424 38.8943C46.3207 37.398 46.7246 35.6906 46.8348 33.1937C46.9449 30.6877 46.9725 29.8891 46.9725 23.5092C46.9725 17.1293 46.9449 16.3307 46.8348 13.8246C46.7246 11.3277 46.3207 9.61113 45.7424 8.12402C45.1641 6.56348 44.3654 5.25078 43.0527 3.94727C41.7492 2.64375 40.4365 1.83594 38.8943 1.23926C37.3981 0.660937 35.6906 0.257031 33.1938 0.146875C30.6785 0.0275391 29.8799 0 23.5 0Z" fill="#FBFBFB"/>
<path d="M23.501 11.4287C16.8365 11.4287 11.4297 16.8355 11.4297 23.5C11.4297 30.1645 16.8365 35.5713 23.501 35.5713C30.1654 35.5713 35.5723 30.1645 35.5723 23.5C35.5723 16.8355 30.1654 11.4287 23.501 11.4287ZM23.501 31.3303C19.1773 31.3303 15.6707 27.8236 15.6707 23.5C15.6707 19.1764 19.1773 15.6697 23.501 15.6697C27.8246 15.6697 31.3312 19.1764 31.3312 23.5C31.3312 27.8236 27.8246 31.3303 23.501 31.3303Z" fill="#FBFBFB"/>
<path d="M38.8668 10.9513C38.8668 12.5118 37.6 13.7695 36.0486 13.7695C34.4881 13.7695 33.2305 12.5027 33.2305 10.9513C33.2305 9.39074 34.4973 8.13312 36.0486 8.13312C37.6 8.13312 38.8668 9.39992 38.8668 10.9513Z" fill="#FBFBFB"/>
</g>
<defs>
<clipPath id="clip0_301_629">
<rect width="47" height="47" fill="white"/>
</clipPath>
</defs>
</svg>
