<svg width="63" height="87" viewBox="0 0 63 87" fill="none" xmlns="http://www.w3.org/2000/svg">
<g clip-path="url(#clip0_128_147)">
<path d="M61.3667 44.5153C61.3667 44.5153 61.3435 44.5153 61.3343 44.5153C60.4388 44.4969 59.7242 43.7665 59.7428 42.8752C59.9005 34.6934 57.047 28.3079 51.7066 24.8854C47.1409 21.9636 41.0627 21.541 36.2187 23.815C35.4067 24.1963 34.4416 23.8517 34.0565 23.0478C33.6714 22.2439 34.0194 21.2883 34.8314 20.907C40.7565 18.1277 47.9019 18.6192 53.4697 22.1841C59.7892 26.2314 63.1716 33.6001 62.986 42.935C62.9675 43.8124 62.2437 44.5107 61.3621 44.5107L61.3667 44.5153Z" fill="black"/>
<path d="M43.2435 18.4952C38.0932 18.4952 33.9034 14.3469 33.9034 9.2476C33.9034 4.14833 38.0932 0 43.2435 0C48.3937 0 52.5835 4.14833 52.5835 9.2476C52.5835 14.3469 48.3937 18.4952 43.2435 18.4952ZM43.2435 3.21576C39.8842 3.21576 37.1513 5.92159 37.1513 9.2476C37.1513 12.5736 39.8842 15.2794 43.2435 15.2794C46.6027 15.2794 49.3356 12.5736 49.3356 9.2476C49.3356 5.92159 46.6027 3.21576 43.2435 3.21576Z" fill="black"/>
<path d="M1.63324 44.5153C0.751663 44.5153 0.0278453 43.817 0.00928588 42.9395C-0.190228 32.6078 3.86037 26.8653 7.29386 23.8655C11.5208 20.172 17.2046 18.5273 22.8838 19.3451C24.6562 19.6023 26.8416 20.2501 28.2057 20.93C33.6622 23.645 35.1377 26.948 36.2095 29.3644C37.337 31.8957 37.903 33.1636 42.4362 33.4071C43.3316 33.4576 44.0183 34.2111 43.9673 35.0977C43.9209 35.9843 43.1646 36.6596 42.2598 36.6183C35.7362 36.2691 34.4695 33.4163 33.24 30.6599C32.2192 28.3676 31.1613 25.9971 26.7488 23.8012C25.8579 23.3556 24.0345 22.7584 22.4198 22.5241C17.6871 21.8396 12.9591 23.2086 9.44676 26.2773C5.26161 29.9341 3.12263 35.6719 3.26183 42.8752C3.28039 43.7618 2.56585 44.4969 1.67036 44.5153C1.66108 44.5153 1.64716 44.5153 1.63788 44.5153H1.63324Z" fill="black"/>
<path d="M19.7565 18.4952C14.6063 18.4952 10.4165 14.3469 10.4165 9.2476C10.4165 4.14833 14.6063 0 19.7565 0C24.9068 0 29.0966 4.14833 29.0966 9.2476C29.0966 14.3469 24.9068 18.4952 19.7565 18.4952ZM19.7565 3.21576C16.3973 3.21576 13.6644 5.92159 13.6644 9.2476C13.6644 12.5736 16.3973 15.2794 19.7565 15.2794C23.1158 15.2794 25.8487 12.5736 25.8487 9.2476C25.8487 5.92159 23.1158 3.21576 19.7565 3.21576Z" fill="black"/>
<path d="M31.4675 87C31.0917 87 30.7205 86.8714 30.4189 86.6187C29.6997 86.0123 12.7132 71.716 8.23111 64.9077C4.39395 59.0872 0 51.3373 0 42.9717C0 42.0851 0.728458 41.3638 1.62395 41.3638C2.51944 41.3638 3.2479 42.0851 3.2479 42.9717C3.2479 50.4966 7.36346 57.709 10.9454 63.1529C14.5599 68.6472 27.6582 80.0172 31.4675 83.2789C35.2026 80.1045 47.8416 69.1663 51.9339 63.1115C55.5437 57.7734 59.6825 50.6574 59.6825 42.9717C59.6825 42.0851 60.411 41.3638 61.3065 41.3638C62.2019 41.3638 62.9304 42.0851 62.9304 42.9717C62.9304 51.521 58.4947 59.1791 54.6343 64.8986C49.5815 72.3775 33.2075 86.0445 32.5115 86.6233C32.2099 86.876 31.8387 87 31.4675 87Z" fill="black"/>
<path d="M31.4676 55.6831C23.2643 55.6831 16.5875 49.077 16.5875 40.9504C16.5875 34.4867 20.768 28.8407 26.9854 26.8975C27.8392 26.6311 28.7532 27.0996 29.0223 27.9495C29.2915 28.7948 28.8182 29.6998 27.9598 29.9663C23.0972 31.4823 19.8308 35.897 19.8308 40.9504C19.8308 47.2992 25.046 52.4674 31.4629 52.4674C37.8798 52.4674 43.095 47.3038 43.095 40.9504C43.095 40.0637 43.8235 39.3425 44.719 39.3425C45.6145 39.3425 46.3429 40.0637 46.3429 40.9504C46.3429 49.0724 39.6708 55.6831 31.4629 55.6831H31.4676Z" fill="black"/>
</g>
<defs>
<clipPath id="clip0_128_147">
<rect width="63" height="87" fill="white"/>
</clipPath>
</defs>
</svg>
