<svg width="214" height="41" viewBox="0 0 214 41" fill="none" xmlns="http://www.w3.org/2000/svg">
<path d="M17.4279 30.0122V32.8079H0.891907V7.60046H17.0138V10.3962H4.11915V18.4077H16.0107V21.1998H4.11915V30.0122H17.4244H17.4279Z" fill="white"/>
<path d="M39.4902 7.60046V32.8043H36.6771L23.9788 13.7942V32.8043H20.7515V7.60046H23.5682L36.2666 26.6105V7.60046H39.4938H39.4902Z" fill="white"/>
<path d="M59.9747 10.3926H52.3172V32.8043H49.0899V10.3926H41.4324V7.59692H59.9747V10.3926Z" fill="white"/>
<path d="M69.9528 22.4117H65.1298V32.8043H61.9025V7.60046H71.3701C72.4196 7.60046 73.4156 7.79889 74.351 8.19575C75.2899 8.5926 76.1038 9.12765 76.7928 9.79734C77.4818 10.467 78.028 11.2572 78.4279 12.1608C78.8277 13.0643 79.0276 14.0139 79.0276 15.0025C79.0276 16.473 78.7313 17.6707 78.1423 18.5884C77.5532 19.5061 76.9071 20.2325 76.2145 20.7676C75.3863 21.4054 74.4616 21.8802 73.4406 22.1955L79.6416 32.8043H76.0181L69.9564 22.4117H69.9528ZM65.1298 19.5982H71.3701C71.9591 19.5982 72.5232 19.4778 73.0622 19.2368C73.6013 18.9959 74.0725 18.6699 74.4795 18.2589C74.8865 17.8478 75.2078 17.3624 75.4434 16.8025C75.679 16.2427 75.7968 15.6439 75.7968 15.0061C75.7968 14.3683 75.679 13.7659 75.4434 13.199C75.2078 12.632 74.8865 12.143 74.4795 11.7356C74.0725 11.3245 73.6013 10.9985 73.0622 10.7576C72.5232 10.5166 71.9591 10.3962 71.3701 10.3962H65.1298V19.5982Z" fill="white"/>
<path d="M98.9015 30.0122V32.8079H82.3655V7.60046H98.4874V10.3962H85.5927V18.4077H97.4843V21.1998H85.5927V30.0122H98.898H98.9015Z" fill="white"/>
<path d="M112.499 10.1978C111.396 10.1978 110.322 10.4458 109.272 10.9419C108.222 11.4379 107.294 12.1289 106.487 13.0218C105.681 13.9147 105.038 14.9742 104.56 16.1967C104.081 17.4227 103.842 18.755 103.842 20.2006C103.842 21.6463 104.081 22.9822 104.56 24.2046C105.038 25.4306 105.681 26.4865 106.487 27.3795C107.294 28.2724 108.222 28.9669 109.272 29.4594C110.322 29.9555 111.4 30.2035 112.499 30.2035C113.495 30.2035 114.459 29.9945 115.384 29.5799C116.308 29.1618 117.13 28.6161 117.844 27.9393C118.558 27.2625 119.122 26.4972 119.536 25.6432C119.95 24.7893 120.157 23.907 120.157 22.9963H112.696V20.2042H123.384V32.8079H120.964L120.157 29.7996C119.568 30.3842 118.897 30.9193 118.151 31.4012C117.479 31.8051 116.673 32.1736 115.73 32.5067C114.784 32.8398 113.71 33.0063 112.503 33.0063C110.939 33.0063 109.443 32.6803 108.005 32.0283C106.566 31.3764 105.306 30.4728 104.217 29.3141C103.128 28.1555 102.254 26.8019 101.6 25.2499C100.943 23.7015 100.615 22.0184 100.615 20.2077C100.615 18.3971 100.943 16.7494 101.6 15.1868C102.257 13.6242 103.128 12.2635 104.217 11.1049C105.306 9.94619 106.57 9.03909 108.005 8.39065C109.443 7.73868 110.939 7.41269 112.503 7.41269C113.895 7.41269 115.162 7.61112 116.312 8.00797C117.462 8.40483 118.479 8.97176 119.364 9.70878C120.25 10.4458 121.007 11.3104 121.638 12.3061C122.27 13.3017 122.788 14.4002 123.195 15.5978H119.771C119.261 13.9962 118.425 12.6958 117.272 11.7001C116.116 10.7045 114.531 10.2048 112.51 10.2048L112.499 10.1978Z" fill="white"/>
<path d="M127.079 27.9995L124.62 32.8043H118.497L132.041 7.60046H138.085L142.691 32.8043H136.647L135.879 27.9995H127.079ZM135.151 22.9963L133.891 14.595L129.578 22.9963H135.147H135.151Z" fill="white"/>
<path d="M148.806 21.0829C148.806 21.9439 148.952 22.7554 149.249 23.5243C149.545 24.2932 149.959 24.9629 150.498 25.5369C151.037 26.1109 151.683 26.5645 152.437 26.9046C153.19 27.2448 154.036 27.4113 154.968 27.4113C156.253 27.4113 157.427 27.057 158.491 26.3448C159.555 25.6361 160.355 24.7219 160.894 23.5987L166.859 23.9885C166.399 25.1861 165.81 26.3023 165.089 27.3298C164.367 28.3574 163.525 29.2681 162.561 30.0547C161.597 30.8413 160.544 31.4827 159.402 31.9787C158.259 32.4748 157.053 32.7866 155.778 32.9177L154.775 34.4413C155.314 34.5725 155.8 34.7744 156.231 35.0473C156.613 35.2563 156.949 35.5504 157.245 35.9366C157.542 36.3193 157.688 36.8119 157.688 37.4107C157.688 38.3497 157.324 39.1363 156.596 39.7741C155.867 40.4119 154.736 40.7308 153.201 40.7308C152.769 40.7308 152.358 40.6954 151.969 40.6245C151.583 40.5536 151.234 40.4792 150.927 40.4013C150.619 40.3233 150.377 40.2524 150.209 40.1851L149.934 40.0859L150.309 38.0733C150.52 38.1512 150.734 38.2221 150.959 38.2894C151.141 38.3426 151.348 38.3816 151.58 38.4064C151.808 38.4312 152.03 38.4453 152.24 38.4453C152.858 38.4453 153.318 38.3107 153.629 38.0449C153.936 37.7792 154.093 37.4426 154.093 37.0386C154.093 36.7764 153.957 36.5142 153.69 36.2485C153.422 35.9827 152.979 35.8481 152.362 35.8481C152.176 35.8481 151.997 35.8693 151.819 35.9083C151.64 35.9473 151.541 35.9685 151.516 35.9685L153.286 32.9213C151.776 32.7901 150.391 32.4146 149.134 31.7874C147.874 31.1637 146.789 30.3417 145.875 29.3247C144.961 28.3078 144.251 27.135 143.74 25.7991C143.23 24.4633 142.973 23.0353 142.973 21.5117C142.973 19.5061 143.358 17.6459 144.126 15.9344C144.893 14.223 145.914 12.7312 147.185 11.4592C148.46 10.1907 149.923 9.19497 151.576 8.47921C153.229 7.76346 154.943 7.40558 156.713 7.40558C158.273 7.40558 159.684 7.65007 160.937 8.13905C162.19 8.62803 163.279 9.2871 164.203 10.1127C165.128 10.9383 165.892 11.895 166.495 12.9757C167.098 14.0564 167.527 15.1974 167.773 16.3951L161.672 16.8061C161.569 16.4021 161.369 15.9805 161.072 15.5376C160.776 15.0947 160.401 14.6801 159.941 14.2974C159.48 13.9147 158.945 13.5994 158.327 13.3584C157.709 13.1175 157.028 12.997 156.278 12.997C155.332 12.997 154.418 13.199 153.533 13.6029C152.647 14.0068 151.855 14.5667 151.162 15.2824C150.466 15.9982 149.902 16.8522 149.47 17.8407C149.038 18.8293 148.82 19.9136 148.82 21.0829H148.806Z" fill="white"/>
<path d="M172.068 27.9996L169.608 32.8043H163.485L177.03 7.60049H183.074L187.679 32.8043H181.635L180.868 27.9996H172.068ZM174.017 5.00321C174.32 3.29532 174.849 2.03388 175.613 1.21183C176.387 0.403942 177.294 0 178.329 0C178.918 0 179.404 0.0850404 179.786 0.255121C180.179 0.425202 180.521 0.627173 180.81 0.861034C181.1 1.08427 181.357 1.27915 181.578 1.44569C181.799 1.61577 182.056 1.7079 182.345 1.71853C182.752 1.71853 183.099 1.58033 183.388 1.3075C183.677 1.04529 183.866 0.609456 183.959 0L186.911 0.389769C186.608 2.09766 186.073 3.3591 185.298 4.18115C184.523 4.98904 183.624 5.39298 182.603 5.39298C181.985 5.39298 181.489 5.30794 181.107 5.13786C180.725 4.96778 180.396 4.76581 180.121 4.53195C179.832 4.31226 179.575 4.11029 179.354 3.92603C179.129 3.75595 178.868 3.67091 178.565 3.67091C177.737 3.67091 177.201 4.24494 176.951 5.38944L174.017 4.99967V5.00321ZM180.139 22.9964L178.879 14.5951L174.567 22.9964H180.136H180.139Z" fill="white"/>
<path d="M201.691 7.40561C203.33 7.40561 204.851 7.69971 206.247 8.28436C207.642 8.86902 208.849 9.68044 209.859 10.7151C210.87 11.7498 211.662 12.9687 212.241 14.3683C212.819 15.7679 213.108 17.2703 213.108 18.8719C213.108 20.8774 212.719 22.7412 211.937 24.4598C211.155 26.1783 210.131 27.6736 208.856 28.9421C207.582 30.2106 206.122 31.2063 204.465 31.9221C202.812 32.6378 201.113 32.9957 199.367 32.9957C197.725 32.9957 196.208 32.7016 194.809 32.1169C193.409 31.5323 192.206 30.7173 191.196 29.6756C190.185 28.6338 189.393 27.4114 188.815 26.0117C188.236 24.6121 187.947 23.1097 187.947 21.5082C187.947 19.5026 188.336 17.6424 189.118 15.9309C189.9 14.2195 190.924 12.7277 192.199 11.4557C193.473 10.1871 194.933 9.19146 196.59 8.4757C198.243 7.75995 199.942 7.40207 201.688 7.40207L201.691 7.40561ZM199.839 27.4114C200.756 27.4114 201.666 27.2094 202.566 26.8055C203.466 26.4015 204.255 25.8381 204.936 25.1153C205.618 24.3924 206.175 23.5385 206.611 22.557C207.043 21.5755 207.261 20.4841 207.261 19.2829C207.261 18.3723 207.107 17.529 206.796 16.753C206.489 15.977 206.057 15.3108 205.508 14.751C204.958 14.1911 204.315 13.7588 203.587 13.4506C202.859 13.1458 202.081 12.9899 201.256 12.9899C200.31 12.9899 199.396 13.1919 198.511 13.5958C197.625 13.9998 196.833 14.5596 196.14 15.2754C195.444 15.9912 194.88 16.8451 194.448 17.8337C194.016 18.8223 193.798 19.9172 193.798 21.1148C193.798 22.0255 193.952 22.8688 194.259 23.6342C194.566 24.4031 194.998 25.0657 195.547 25.6255C196.097 26.1854 196.736 26.6212 197.457 26.933C198.179 27.2448 198.975 27.4007 199.839 27.4007V27.4114Z" fill="white"/>
</svg>
