<svg width="30" height="22" viewBox="0 0 30 22" fill="none" xmlns="http://www.w3.org/2000/svg">
<g clip-path="url(#clip0_301_534)">
<path d="M29.5001 21.5879C29.5001 21.5879 29.4944 21.5879 29.4901 21.5879C29.2159 21.5821 28.9971 21.3539 29.0027 21.0755C29.0823 16.9188 27.65 13.665 24.9685 11.9139C22.6708 10.4126 19.6086 10.1973 17.1673 11.3642C16.9186 11.4833 16.6231 11.3757 16.5051 11.1245C16.3872 10.8733 16.4937 10.5748 16.7424 10.4556C19.4878 9.14232 22.928 9.38488 25.5085 11.0699C28.4883 13.0162 30.0827 16.5758 29.996 21.0941C29.9903 21.3683 29.7687 21.5864 29.4987 21.5864L29.5001 21.5879Z" fill="#262626"/>
<path d="M20.7001 9.15955C18.3597 9.15955 16.457 7.23624 16.457 4.87372C16.457 2.5112 18.3597 0.587891 20.7001 0.587891C23.0405 0.587891 24.9432 2.5112 24.9432 4.87372C24.9432 7.23624 23.0391 9.15955 20.7001 9.15955ZM20.7001 1.59261C18.9082 1.59261 17.4517 3.06523 17.4517 4.87372C17.4517 6.68221 18.9097 8.15484 20.7001 8.15484C22.4906 8.15484 23.9485 6.68221 23.9485 4.87372C23.9485 3.06523 22.4906 1.59261 20.7001 1.59261Z" fill="#262626"/>
<path d="M0.500767 21.6684C0.230778 21.6684 0.00910347 21.4502 0.0034195 21.1761C-0.091787 16.1712 1.81945 13.3996 3.4408 11.9557C5.42877 10.1845 8.10166 9.39363 10.7745 9.7869C11.593 9.90747 12.6432 10.2247 13.2684 10.5433C15.8859 11.871 16.7711 13.5546 17.4163 14.7832C18.0927 16.0707 18.465 16.7812 20.2568 16.7525C20.5282 16.7453 20.757 16.9692 20.7613 17.2462C20.7655 17.5232 20.5467 17.7514 20.2725 17.7557C17.8795 17.7959 17.2244 16.5601 16.5381 15.254C15.8901 14.0211 15.1569 12.6245 12.8222 11.4404C12.3675 11.2093 11.4453 10.9007 10.631 10.7801C8.24802 10.4299 5.86644 11.1332 4.09872 12.7092C2.6351 14.0125 0.910013 16.5372 0.998115 21.156C1.0038 21.433 0.784966 21.6626 0.510714 21.6684C0.507872 21.6684 0.503609 21.6684 0.500767 21.6684Z" fill="#262626"/>
<path d="M9.29973 9.15955C6.95935 9.15955 5.05664 7.23624 5.05664 4.87372C5.05664 2.5112 6.95935 0.587891 9.29973 0.587891C11.6401 0.587891 13.5428 2.5112 13.5428 4.87372C13.5428 7.23624 11.6387 9.15955 9.29973 9.15955ZM9.29973 1.59261C7.50785 1.59261 6.05134 3.06523 6.05134 4.87372C6.05134 6.68221 7.50927 8.15484 9.29973 8.15484C11.0902 8.15484 12.5481 6.68221 12.5481 4.87372C12.5481 3.06523 11.0902 1.59261 9.29973 1.59261Z" fill="#262626"/>
</g>
<defs>
<clipPath id="clip0_301_534">
<rect width="30" height="21" fill="white" transform="translate(0 0.587891)"/>
</clipPath>
</defs>
</svg>
