<svg width="49" height="59" viewBox="0 0 49 59" fill="none" xmlns="http://www.w3.org/2000/svg">
<g clip-path="url(#clip0_128_129)">
<path d="M24.5 59C24.2381 59 23.9729 58.9086 23.7602 58.7291C23.1971 58.2526 9.91589 46.9989 6.41963 41.6463C3.43079 37.077 0 30.9899 0 24.4264C0 10.9566 10.9896 0 24.5 0C38.0104 0 49 10.9566 49 24.4264C49 31.1303 45.5398 37.1455 42.528 41.6365C38.5832 47.5146 25.78 58.2754 25.2366 58.7324C25.0238 58.9119 24.7619 59 24.5 59ZM24.5 2.28467C12.2533 2.28467 2.29156 12.2165 2.29156 24.4264C2.29156 30.3894 5.52265 36.0945 8.33799 40.3995C11.2024 44.7828 21.629 53.8823 24.5033 56.3563C27.3219 53.9476 37.3851 45.1973 40.626 40.3669C43.461 36.1435 46.7117 30.5167 46.7117 24.4264C46.7117 12.2165 36.75 2.28467 24.5033 2.28467H24.5Z" fill="white"/>
<path d="M24.5 34.319C18.1491 34.319 12.9833 29.1687 12.9833 22.8369C12.9833 16.5051 18.1491 11.3548 24.5 11.3548C30.8509 11.3548 36.0167 16.5051 36.0167 22.8369C36.0167 29.1687 30.8509 34.319 24.5 34.319ZM24.5 13.6362C19.4128 13.6362 15.2716 17.7617 15.2716 22.8369C15.2716 27.9122 19.4095 32.0376 24.5 32.0376C29.5905 32.0376 33.7284 27.9122 33.7284 22.8369C33.7284 17.7617 29.5905 13.6362 24.5 13.6362Z" fill="white"/>
</g>
<defs>
<clipPath id="clip0_128_129">
<rect width="49" height="59" fill="white"/>
</clipPath>
</defs>
</svg>
