<svg width="75" height="52" viewBox="0 0 75 52" fill="none" xmlns="http://www.w3.org/2000/svg">
<g clip-path="url(#clip0_128_164)">
<path d="M73.7495 52C73.7495 52 73.7353 52 73.7247 52C73.039 51.9858 72.492 51.4207 72.5062 50.7312C72.7051 40.4385 69.1242 32.3814 62.4207 28.0454C56.6763 24.3278 49.0207 23.7947 42.9175 26.6842C42.2958 26.9792 41.5569 26.7126 41.2621 26.0906C40.9672 25.4687 41.2337 24.7294 41.8553 24.4344C48.7187 21.1824 57.3193 21.7831 63.7706 25.9556C71.2202 30.7749 75.206 39.5891 74.9893 50.7774C74.9751 51.4562 74.4209 51.9965 73.746 51.9965L73.7495 52Z" fill="black"/>
<path d="M51.7526 21.2251C45.9016 21.2251 41.1449 16.4626 41.1449 10.6125C41.1449 4.76249 45.9016 0 51.7526 0C57.6035 0 62.3603 4.76249 62.3603 10.6125C62.3603 16.4626 57.5999 21.2251 51.7526 21.2251ZM51.7526 2.48787C47.2729 2.48787 43.6316 6.13437 43.6316 10.6125C43.6316 15.0907 47.2764 18.7372 51.7526 18.7372C56.2287 18.7372 59.8735 15.0907 59.8735 10.6125C59.8735 6.13437 56.2287 2.48787 51.7526 2.48787Z" fill="black"/>
<path d="M1.25045 52C0.575481 52 0.0212938 51.4598 0.00708391 50.7809C-0.230932 38.3878 4.54716 31.5248 8.60054 27.9494C13.5705 23.5637 20.2527 21.6054 26.9349 22.5792C28.9811 22.8777 31.6064 23.6632 33.1695 24.4522C39.7132 27.7397 41.9264 31.9087 43.5392 34.951C45.2302 38.139 46.1609 39.8983 50.6406 39.8272C51.3191 39.8094 51.8911 40.3639 51.9017 41.0498C51.9124 41.7358 51.3653 42.3009 50.6797 42.3115C44.6973 42.411 43.0596 39.351 41.3438 36.1167C39.7238 33.0638 37.8908 29.6056 32.054 26.6735C30.9172 26.1013 28.6117 25.3372 26.5761 25.0386C20.6186 24.1714 14.6646 25.9129 10.2453 29.8153C6.58628 33.0424 2.27357 39.2941 2.49382 50.7312C2.50803 51.4171 1.96095 51.9858 1.27532 52C1.26822 52 1.25756 52 1.25045 52Z" fill="black"/>
<path d="M23.2475 21.2251C17.3965 21.2251 12.6397 16.4626 12.6397 10.6125C12.6397 4.76249 17.3965 0 23.2475 0C29.0984 0 33.8552 4.76249 33.8552 10.6125C33.8552 16.4626 29.0948 21.2251 23.2475 21.2251ZM23.2475 2.48787C18.7678 2.48787 15.1265 6.13437 15.1265 10.6125C15.1265 15.0907 18.7713 18.7372 23.2475 18.7372C27.7236 18.7372 31.3684 15.0907 31.3684 10.6125C31.3684 6.13437 27.7236 2.48787 23.2475 2.48787Z" fill="black"/>
</g>
<defs>
<clipPath id="clip0_128_164">
<rect width="75" height="52" fill="white"/>
</clipPath>
</defs>
</svg>
