<svg width="60" height="60" viewBox="0 0 60 60" fill="none" xmlns="http://www.w3.org/2000/svg">
<g clip-path="url(#clip0_376_424)">
<path d="M21.5526 42.3777C23.6377 42.3777 25.3279 40.6875 25.3279 38.6024C25.3279 36.5174 23.6377 34.8271 21.5526 34.8271C19.4676 34.8271 17.7773 36.5174 17.7773 38.6024C17.7773 40.6875 19.4676 42.3777 21.5526 42.3777Z" stroke="white" stroke-width="2" stroke-miterlimit="10"/>
<path d="M38.1386 42.3777C40.2236 42.3777 41.9139 40.6875 41.9139 38.6024C41.9139 36.5174 40.2236 34.8271 38.1386 34.8271C36.0535 34.8271 34.3633 36.5174 34.3633 38.6024C34.3633 40.6875 36.0535 42.3777 38.1386 42.3777Z" stroke="white" stroke-width="2" stroke-miterlimit="10"/>
<path d="M17.7765 38.3615H14.582V19.2595H23.8071H26.0686V25.3735" stroke="white" stroke-width="2" stroke-miterlimit="10"/>
<path d="M33.6833 38.3615H30.3281V19.2595H37.2979L47.1069 32.2722V38.3615H41.9135" stroke="white" stroke-width="2" stroke-miterlimit="10"/>
<path d="M25.3281 38.3616H29.9623" stroke="white" stroke-width="2" stroke-miterlimit="10"/>
<path d="M35.8127 22.5281L33.4258 22.5281L33.4586 27.7307L38.791 27.7029C39.1123 27.7029 39.2945 27.3383 39.1061 27.0788L37 24L35.8127 22.5281Z" stroke="white" stroke-width="2" stroke-miterlimit="10"/>
<path d="M55.1842 15.549C57.631 19.8032 59.0305 24.737 59.0305 29.9983C59.0305 46.0325 46.0333 59.0267 30.0022 59.0267C13.9711 59.0267 0.970703 46.0325 0.970703 29.9983C0.970703 13.9642 13.968 0.969971 29.9991 0.969971C34.0061 0.969971 37.8246 1.78249 41.3002 3.24998" stroke="white" stroke-width="2" stroke-miterlimit="10"/>
<path d="M55.0017 12.6821L53.9575 9.71629L51.1739 11.1807L50.2656 9.45059L55.0481 6.93579L56.843 12.0334L55.0017 12.6821Z" fill="white"/>
<path d="M48.0138 15.3884C45.1097 15.3884 42.3787 13.5842 41.3437 10.6955C40.7073 8.91603 40.8 6.9944 41.6063 5.28285C42.4127 3.5713 43.84 2.27992 45.6195 1.64349C48.1467 0.738288 50.334 1.47666 51.3288 3.57439C51.8849 4.74529 51.579 6.32708 50.5719 7.51652C49.8242 8.39701 47.6554 10.2043 42.9688 9.24969C43.0182 9.51538 43.0892 9.77799 43.185 10.0406C44.1397 12.7006 47.0777 14.0908 49.7408 13.1362C51.3844 12.5461 52.6047 11.1806 53.0033 9.47831L54.9064 9.92628C54.3533 12.2743 52.6696 14.1619 50.402 14.9775C49.6141 15.2587 48.8109 15.3915 48.02 15.3915L48.0138 15.3884ZM42.9873 7.25392C46.9171 8.16839 48.5452 6.88009 49.0797 6.24985C49.6512 5.57944 49.7532 4.81635 49.5616 4.41163C48.8572 2.92561 47.3867 3.08626 46.2775 3.4848C44.9893 3.94822 43.9574 4.88432 43.3735 6.12009C43.2005 6.48773 43.0707 6.86774 42.9904 7.25392H42.9873Z" fill="white"/>
</g>
<defs>
<clipPath id="clip0_376_424">
<rect width="60" height="60" fill="white"/>
</clipPath>
</defs>
</svg>
