<svg width="61" height="63" viewBox="0 0 61 63" fill="none" xmlns="http://www.w3.org/2000/svg">
<path d="M56.0914 16.2813C58.5778 20.7404 60 25.9119 60 31.4266C60 48.2332 46.7923 61.8533 30.5016 61.8533C14.2109 61.8533 1 48.2332 1 31.4266C1 14.6201 14.2077 1 30.4984 1C34.5703 1 38.4507 1.85166 41.9826 3.38983" stroke="#262626" stroke-width="2" stroke-miterlimit="10"/>
<path d="M43.3086 5.27069C43.3086 5.27069 45.6506 10.2212 51.9306 8.05675C54.3986 7.20563 54.3073 2.40175 48.3011 2.65676C41.9739 2.92453 40.3779 10.6484 44.3128 14.1262C46.7461 16.2747 51.8205 16.2046 54.2978 11.9745" stroke="#262626" stroke-width="2" stroke-miterlimit="10"/>
<path d="M49.873 12.4047L54.2958 11.748V16.2778" stroke="#262626" stroke-width="2" stroke-miterlimit="10"/>
<path d="M29.9585 17.7185C29.9585 17.7185 24.2015 12.7003 20.5779 17.7185C15.7347 24.4221 29.9585 33.0866 29.9585 33.0866C29.9585 33.0866 44.0199 24.3751 39.3996 17.7185C35.7569 12.4653 29.9585 17.7185 29.9585 17.7185Z" stroke="#262626" stroke-width="2" stroke-miterlimit="10"/>
<path d="M20.1398 35.554L17.6579 33.0155C17.1308 32.4757 17.0963 31.6081 17.5795 31.0265C18.1066 30.3935 19.0447 30.3357 19.6409 30.9012C20.8677 32.0676 22.8663 33.8895 24.1495 34.6543C26.1074 35.8175 27.2432 38.1471 27.2432 38.1471V41.5434L28.3131 42.6102V46.3633L18.8753 46.2348V42.7741L19.7915 41.5788V39.5416L14.1094 33.1569L14.5392 24.4234C14.5926 23.6939 15.1856 23.1284 15.9009 23.1284C16.6665 23.1284 17.2814 23.7743 17.2658 24.5583L17.1842 28.8223" stroke="#262626" stroke-width="2" stroke-miterlimit="10"/>
<path d="M20.666 41.9375H27.2216" stroke="#262626" stroke-width="2" stroke-miterlimit="10"/>
<path d="M40.8589 35.554L43.3407 33.0155C43.8678 32.4757 43.9023 31.6081 43.4191 31.0265C42.892 30.3935 41.9539 30.3357 41.3577 30.9012C40.131 32.0676 38.1323 33.8895 36.8491 34.6543C34.8912 35.8175 33.7555 38.1471 33.7555 38.1471V41.5434L32.6855 42.6102V46.3633L42.1233 46.2348V42.7741L41.2071 41.5788V39.5416L46.8893 33.1569L46.4594 24.4234C46.4061 23.6939 45.8131 23.1284 45.0977 23.1284C44.3321 23.1284 43.7172 23.7743 43.7329 24.5583L43.8144 28.8223" stroke="#262626" stroke-width="2" stroke-miterlimit="10"/>
<path d="M40.3349 41.9375H33.7793" stroke="#262626" stroke-width="2" stroke-miterlimit="10"/>
</svg>
