<svg width="154" height="34" viewBox="0 0 154 34" fill="none" xmlns="http://www.w3.org/2000/svg">
<path d="M9.61932 26.9287C8.09233 26.9287 6.77131 26.5736 5.65625 25.8634C4.54119 25.1461 3.67827 24.1553 3.06747 22.8911C2.46378 21.6198 2.16193 20.1567 2.16193 18.5019C2.16193 16.8542 2.46378 15.3911 3.06747 14.1127C3.67827 12.8272 4.51989 11.8222 5.59233 11.0978C6.67188 10.3662 7.91832 10.0005 9.33168 10.0005C10.2195 10.0005 11.0753 10.1638 11.8991 10.4905C12.723 10.8101 13.4616 11.3037 14.1151 11.9714C14.7756 12.6319 15.2976 13.4664 15.6811 14.4749C16.0646 15.4763 16.2564 16.6624 16.2564 18.0331V18.9706H3.4723V17.2981H14.3175C14.3175 16.2469 14.1044 15.3023 13.6783 14.4642C13.2592 13.6191 12.6733 12.9515 11.9205 12.4614C11.1747 11.9714 10.3118 11.7263 9.33168 11.7263C8.29474 11.7263 7.3821 12.0033 6.59375 12.5573C5.8054 13.1113 5.1875 13.8428 4.74006 14.7519C4.29972 15.661 4.07599 16.6553 4.06889 17.7348V18.7363C4.06889 20.036 4.29261 21.1723 4.74006 22.1454C5.1946 23.1113 5.83736 23.8606 6.66832 24.3932C7.49929 24.9259 8.48295 25.1922 9.61932 25.1922C10.3935 25.1922 11.0717 25.0715 11.6541 24.83C12.2436 24.5885 12.7372 24.2654 13.1349 23.8606C13.5398 23.4486 13.8452 22.9976 14.0511 22.5076L15.8516 23.0935C15.603 23.7824 15.1946 24.4181 14.6264 25.0005C14.0653 25.5829 13.3622 26.0516 12.517 26.4067C11.679 26.7547 10.7131 26.9287 9.61932 26.9287ZM21.1315 16.3606V26.5878H19.2352V10.2242H21.0782V12.7917H21.2487C21.6322 11.9536 22.2288 11.2824 23.0385 10.7782C23.8552 10.2668 24.8637 10.0111 26.064 10.0111C27.1649 10.0111 28.1308 10.2419 28.9618 10.7036C29.7998 11.1581 30.4497 11.8293 30.9113 12.7171C31.3801 13.6049 31.6145 14.6951 31.6145 15.9877V26.5878H29.7181V16.1049C29.7181 14.7625 29.3417 13.7008 28.5889 12.9195C27.8431 12.1383 26.8417 11.7476 25.5846 11.7476C24.7252 11.7476 23.9618 11.9323 23.2941 12.3016C22.6265 12.6709 22.0974 13.2036 21.7068 13.8996C21.3233 14.5885 21.1315 15.4089 21.1315 16.3606ZM41.8536 10.2242V11.8755H34.0446V10.2242H41.8536ZM36.4842 6.30374H38.3912V22.3158C38.3912 22.9976 38.5084 23.5339 38.7428 23.9245C38.9771 24.308 39.2825 24.5814 39.6589 24.7448C40.0354 24.901 40.4366 24.9792 40.8628 24.9792C41.1114 24.9792 41.3244 24.965 41.502 24.9366C41.6795 24.901 41.8358 24.8655 41.9707 24.83L42.3756 26.5452C42.1909 26.6162 41.9636 26.6802 41.6937 26.737C41.4239 26.8009 41.0901 26.8329 40.6923 26.8329C39.9963 26.8329 39.3251 26.6802 38.6788 26.3748C38.0396 26.0694 37.5141 25.6148 37.1021 25.0111C36.6902 24.4074 36.4842 23.6581 36.4842 22.7633V6.30374ZM44.9602 26.5878V10.2242H46.8032V12.7384H46.9417C47.2684 11.9145 47.8366 11.2505 48.6463 10.7462C49.463 10.2348 50.3863 9.97916 51.4162 9.97916C51.5724 9.97916 51.7464 9.98272 51.9382 9.98982C52.1299 9.99692 52.2897 10.004 52.4176 10.0111V11.9394C52.3324 11.9252 52.1832 11.9039 51.9701 11.8755C51.7571 11.8471 51.5262 11.8329 51.2777 11.8329C50.4254 11.8329 49.6654 12.014 48.9978 12.3762C48.3373 12.7313 47.8153 13.2249 47.4318 13.857C47.0483 14.4891 46.8565 15.21 46.8565 16.0196V26.5878H44.9602ZM60.5713 26.9287C59.0443 26.9287 57.7233 26.5736 56.6082 25.8634C55.4931 25.1461 54.6302 24.1553 54.0194 22.8911C53.4157 21.6198 53.1139 20.1567 53.1139 18.5019C53.1139 16.8542 53.4157 15.3911 54.0194 14.1127C54.6302 12.8272 55.4718 11.8222 56.5443 11.0978C57.6238 10.3662 58.8703 10.0005 60.2836 10.0005C61.1714 10.0005 62.0272 10.1638 62.8511 10.4905C63.675 10.8101 64.4136 11.3037 65.067 11.9714C65.7275 12.6319 66.2495 13.4664 66.6331 14.4749C67.0166 15.4763 67.2083 16.6624 67.2083 18.0331V18.9706H54.4243V17.2981H65.2694C65.2694 16.2469 65.0564 15.3023 64.6302 14.4642C64.2112 13.6191 63.6252 12.9515 62.8724 12.4614C62.1267 11.9714 61.2637 11.7263 60.2836 11.7263C59.2467 11.7263 58.3341 12.0033 57.5457 12.5573C56.7574 13.1113 56.1395 13.8428 55.692 14.7519C55.2517 15.661 55.0279 16.6553 55.0208 17.7348V18.7363C55.0208 20.036 55.2446 21.1723 55.692 22.1454C56.1466 23.1113 56.7893 23.8606 57.6203 24.3932C58.4512 24.9259 59.4349 25.1922 60.5713 25.1922C61.3454 25.1922 62.0237 25.0715 62.6061 24.83C63.1956 24.5885 63.6892 24.2654 64.0869 23.8606C64.4917 23.4486 64.7971 22.9976 65.0031 22.5076L66.8035 23.0935C66.5549 23.7824 66.1466 24.4181 65.5784 25.0005C65.0173 25.5829 64.3142 26.0516 63.469 26.4067C62.6309 26.7547 61.665 26.9287 60.5713 26.9287ZM76.43 33.0651C75.315 33.0651 74.3384 32.9195 73.5004 32.6283C72.6623 32.3442 71.9556 31.9536 71.3803 31.4564C70.805 30.9593 70.3576 30.4018 70.038 29.7839L71.5934 28.7611C71.8278 29.1731 72.1403 29.5779 72.5309 29.9756C72.9286 30.3733 73.4435 30.7036 74.0756 30.9664C74.7148 31.2292 75.4996 31.3606 76.43 31.3606C77.8789 31.3606 79.0472 30.9983 79.935 30.2739C80.8299 29.5495 81.2773 28.4238 81.2773 26.8968V23.2107H81.1069C80.8867 23.7079 80.5707 24.205 80.1587 24.7022C79.7468 25.1922 79.207 25.6006 78.5394 25.9273C77.8789 26.254 77.0586 26.4174 76.0785 26.4174C74.7717 26.4174 73.6104 26.0942 72.5948 25.4479C71.5863 24.8016 70.7908 23.8783 70.2085 22.678C69.6332 21.4706 69.3455 20.0324 69.3455 18.3634C69.3455 16.7086 69.6261 15.2526 70.1871 13.9955C70.7553 12.7384 71.5472 11.7583 72.5629 11.0552C73.5785 10.352 74.761 10.0005 76.1104 10.0005C77.1119 10.0005 77.9428 10.178 78.6033 10.5331C79.2638 10.8812 79.793 11.3144 80.1907 11.8329C80.5955 12.3513 80.9116 12.8556 81.1388 13.3456H81.3306V10.2242H83.1843V27.014C83.1843 28.3989 82.8896 29.5388 82.3001 30.4337C81.7106 31.3286 80.908 31.9891 79.8924 32.4152C78.8768 32.8485 77.7227 33.0651 76.43 33.0651ZM76.3022 24.6809C77.3533 24.6809 78.2518 24.4287 78.9975 23.9245C79.7433 23.4131 80.315 22.6816 80.7127 21.7299C81.1104 20.7782 81.3093 19.6454 81.3093 18.3314C81.3093 17.053 81.114 15.9202 80.7234 14.933C80.3327 13.9387 79.7646 13.1574 79.0188 12.5892C78.2802 12.014 77.3746 11.7263 76.3022 11.7263C75.2085 11.7263 74.2852 12.0211 73.5323 12.6106C72.7795 13.2 72.2113 13.9955 71.8278 14.9969C71.4442 15.9912 71.2525 17.1027 71.2525 18.3314C71.2525 19.5814 71.4478 20.6858 71.8384 21.6446C72.229 22.5964 72.8008 23.3421 73.5536 23.8819C74.3065 24.4145 75.2227 24.6809 76.3022 24.6809Z" fill="#FBFBFB"/>
<path d="M90.7642 26.8648C89.7202 26.8648 88.7933 26.6908 87.9837 26.3428C87.1811 25.9877 86.5455 25.455 86.0767 24.7448C85.6151 24.0275 85.3842 23.129 85.3842 22.0495C85.3842 21.1404 85.544 20.3733 85.8636 19.7483C86.1832 19.1233 86.6236 18.6155 87.1847 18.2249C87.7457 17.8343 88.392 17.5395 89.1236 17.3407C89.8551 17.1347 90.6364 16.9962 91.4673 16.9252C92.3977 16.84 93.147 16.7512 93.7152 16.6589C94.2834 16.5594 94.6953 16.4209 94.951 16.2434C95.2138 16.0587 95.3452 15.7995 95.3452 15.4657V15.4124C95.3452 14.8655 95.157 14.4429 94.7805 14.1446C94.4041 13.8464 93.8963 13.6972 93.2571 13.6972C92.5682 13.6972 92.0142 13.8464 91.5952 14.1446C91.1761 14.4429 90.9098 14.8549 90.7962 15.3804L85.9915 15.21C86.1335 14.2157 86.4993 13.3279 87.0888 12.5466C87.6854 11.7583 88.5021 11.1404 89.5391 10.6929C90.5831 10.2384 91.8366 10.0111 93.2997 10.0111C94.3438 10.0111 95.3061 10.1354 96.1868 10.384C97.0675 10.6255 97.8345 10.9806 98.4879 11.4493C99.1413 11.911 99.6456 12.4792 100.001 13.1539C100.363 13.8286 100.544 14.5992 100.544 15.4657V26.5878H95.6435V24.308H95.5156C95.2244 24.862 94.8516 25.3307 94.397 25.7143C93.9496 26.0978 93.4205 26.3854 92.8097 26.5772C92.206 26.7689 91.5241 26.8648 90.7642 26.8648ZM92.3729 23.4557C92.9339 23.4557 93.4382 23.3421 93.8857 23.1148C94.3402 22.8875 94.7024 22.575 94.9723 22.1773C95.2422 21.7725 95.3771 21.3037 95.3771 20.7711V19.2157C95.228 19.2938 95.0469 19.3648 94.8338 19.4287C94.6278 19.4927 94.4006 19.553 94.152 19.6098C93.9034 19.6667 93.6477 19.7164 93.3849 19.759C93.1222 19.8016 92.87 19.8407 92.6286 19.8762C92.1385 19.9543 91.7195 20.075 91.3714 20.2384C91.0305 20.4017 90.7678 20.6148 90.5831 20.8776C90.4055 21.1333 90.3168 21.4387 90.3168 21.7938C90.3168 22.3336 90.5085 22.7455 90.892 23.0296C91.2827 23.3137 91.7763 23.4557 92.3729 23.4557ZM110.168 26.8968C108.442 26.8968 106.961 26.5417 105.725 25.8314C104.497 25.1212 103.552 24.134 102.892 22.8698C102.231 21.5985 101.901 20.1283 101.901 18.4593C101.901 16.7831 102.231 15.313 102.892 14.0488C103.559 12.7775 104.507 11.7867 105.736 11.0765C106.972 10.3662 108.446 10.0111 110.157 10.0111C111.67 10.0111 112.987 10.2846 114.11 10.8314C115.239 11.3783 116.12 12.1525 116.752 13.1539C117.391 14.1482 117.728 15.3165 117.764 16.6589H112.895C112.796 15.8208 112.512 15.1638 112.043 14.688C111.581 14.2121 110.978 13.9742 110.232 13.9742C109.628 13.9742 109.099 14.1446 108.644 14.4856C108.19 14.8194 107.835 15.3165 107.579 15.977C107.331 16.6304 107.206 17.4401 107.206 18.406C107.206 19.3719 107.331 20.1887 107.579 20.8563C107.835 21.5168 108.19 22.0175 108.644 22.3584C109.099 22.6922 109.628 22.8591 110.232 22.8591C110.715 22.8591 111.141 22.7562 111.51 22.5502C111.887 22.3442 112.196 22.0424 112.437 21.6446C112.679 21.2398 112.831 20.7498 112.895 20.1745H117.764C117.714 21.5239 117.377 22.7029 116.752 23.7114C116.134 24.7199 115.264 25.5047 114.142 26.0658C113.027 26.6198 111.702 26.8968 110.168 26.8968ZM109.145 26.5026H111.233L111.063 27.4614C111.844 27.575 112.469 27.8556 112.938 28.303C113.407 28.7576 113.644 29.3471 113.652 30.0715C113.659 31.1794 113.13 32.053 112.064 32.6922C111.006 33.3385 109.532 33.6617 107.643 33.6617L107.622 31.5204C108.595 31.5204 109.348 31.4103 109.88 31.1901C110.413 30.9699 110.69 30.6361 110.711 30.1887C110.733 29.7768 110.573 29.4465 110.232 29.1979C109.891 28.9564 109.362 28.7895 108.644 28.6972L109.145 26.5026ZM123.843 26.8648C122.799 26.8648 121.872 26.6908 121.062 26.3428C120.26 25.9877 119.624 25.455 119.155 24.7448C118.694 24.0275 118.463 23.129 118.463 22.0495C118.463 21.1404 118.623 20.3733 118.942 19.7483C119.262 19.1233 119.702 18.6155 120.263 18.2249C120.824 17.8343 121.471 17.5395 122.202 17.3407C122.934 17.1347 123.715 16.9962 124.546 16.9252C125.476 16.84 126.226 16.7512 126.794 16.6589C127.362 16.5594 127.774 16.4209 128.03 16.2434C128.292 16.0587 128.424 15.7995 128.424 15.4657V15.4124C128.424 14.8655 128.235 14.4429 127.859 14.1446C127.483 13.8464 126.975 13.6972 126.336 13.6972C125.647 13.6972 125.093 13.8464 124.674 14.1446C124.255 14.4429 123.988 14.8549 123.875 15.3804L119.07 15.21C119.212 14.2157 119.578 13.3279 120.167 12.5466C120.764 11.7583 121.581 11.1404 122.618 10.6929C123.662 10.2384 124.915 10.0111 126.378 10.0111C127.422 10.0111 128.385 10.1354 129.265 10.384C130.146 10.6255 130.913 10.9806 131.566 11.4493C132.22 11.911 132.724 12.4792 133.079 13.1539C133.441 13.8286 133.623 14.5992 133.623 15.4657V26.5878H128.722V24.308H128.594C128.303 24.862 127.93 25.3307 127.476 25.7143C127.028 26.0978 126.499 26.3854 125.888 26.5772C125.284 26.7689 124.603 26.8648 123.843 26.8648ZM125.451 23.4557C126.012 23.4557 126.517 23.3421 126.964 23.1148C127.419 22.8875 127.781 22.575 128.051 22.1773C128.321 21.7725 128.456 21.3037 128.456 20.7711V19.2157C128.306 19.2938 128.125 19.3648 127.912 19.4287C127.706 19.4927 127.479 19.553 127.231 19.6098C126.982 19.6667 126.726 19.7164 126.463 19.759C126.201 19.8016 125.949 19.8407 125.707 19.8762C125.217 19.9543 124.798 20.075 124.45 20.2384C124.109 20.4017 123.846 20.6148 123.662 20.8776C123.484 21.1333 123.395 21.4387 123.395 21.7938C123.395 22.3336 123.587 22.7455 123.971 23.0296C124.361 23.3137 124.855 23.4557 125.451 23.4557ZM123.576 8.20005L120.86 8.17874C120.86 6.73698 121.204 5.64678 121.893 4.90814C122.582 4.16951 123.42 3.79664 124.407 3.78953C124.933 3.78953 125.38 3.87476 125.75 4.04521C126.126 4.20857 126.456 4.40388 126.74 4.63115C127.032 4.85132 127.302 5.04664 127.55 5.21709C127.806 5.38044 128.076 5.46212 128.36 5.46212C128.765 5.45502 129.063 5.30587 129.255 5.01468C129.454 4.71638 129.556 4.3151 129.564 3.81084L132.238 3.8428C132.216 5.27036 131.865 6.36056 131.183 7.1134C130.501 7.85914 129.67 8.23556 128.69 8.24266C128.15 8.24976 127.692 8.16809 127.316 7.99763C126.939 7.82718 126.613 7.63186 126.336 7.41169C126.066 7.19152 125.806 6.99976 125.558 6.83641C125.309 6.66595 125.036 6.58073 124.738 6.58073C124.39 6.58073 124.109 6.72277 123.896 7.00686C123.683 7.28385 123.576 7.68158 123.576 8.20005ZM143.246 26.8968C141.528 26.8968 140.05 26.5452 138.815 25.8421C137.586 25.1319 136.638 24.1446 135.97 22.8804C135.31 21.6091 134.979 20.1354 134.979 18.4593C134.979 16.776 135.31 15.3023 135.97 14.0381C136.638 12.7668 137.586 11.7796 138.815 11.0765C140.05 10.3662 141.528 10.0111 143.246 10.0111C144.965 10.0111 146.439 10.3662 147.668 11.0765C148.903 11.7796 149.852 12.7668 150.512 14.0381C151.18 15.3023 151.513 16.776 151.513 18.4593C151.513 20.1354 151.18 21.6091 150.512 22.8804C149.852 24.1446 148.903 25.1319 147.668 25.8421C146.439 26.5452 144.965 26.8968 143.246 26.8968ZM143.278 22.9657C143.903 22.9657 144.432 22.7739 144.866 22.3904C145.299 22.0069 145.629 21.4742 145.857 20.7924C146.091 20.1106 146.208 19.3222 146.208 18.4273C146.208 17.5182 146.091 16.7228 145.857 16.041C145.629 15.3591 145.299 14.8265 144.866 14.4429C144.432 14.0594 143.903 13.8677 143.278 13.8677C142.632 13.8677 142.085 14.0594 141.638 14.4429C141.197 14.8265 140.86 15.3591 140.626 16.041C140.398 16.7228 140.285 17.5182 140.285 18.4273C140.285 19.3222 140.398 20.1106 140.626 20.7924C140.86 21.4742 141.197 22.0069 141.638 22.3904C142.085 22.7739 142.632 22.9657 143.278 22.9657Z" fill="#FBFBFB"/>
</svg>
