<svg width="153" height="34" viewBox="0 0 153 34" fill="none" xmlns="http://www.w3.org/2000/svg">
<path d="M9.11932 27.1349C7.59233 27.1349 6.27131 26.7797 5.15625 26.0695C4.04119 25.3522 3.17827 24.3614 2.56747 23.0972C1.96378 21.8259 1.66193 20.3628 1.66193 18.708C1.66193 17.0603 1.96378 15.5972 2.56747 14.3188C3.17827 13.0333 4.01989 12.0283 5.09233 11.3039C6.17188 10.5724 7.41832 10.2066 8.83168 10.2066C9.71946 10.2066 10.5753 10.3699 11.3991 10.6966C12.223 11.0162 12.9616 11.5099 13.6151 12.1775C14.2756 12.838 14.7976 13.6725 15.1811 14.681C15.5646 15.6824 15.7564 16.8685 15.7564 18.2393V19.1768H2.9723V17.5042H13.8175C13.8175 16.453 13.6044 15.5084 13.1783 14.6704C12.7592 13.8252 12.1733 13.1576 11.4205 12.6675C10.6747 12.1775 9.81179 11.9324 8.83168 11.9324C7.79474 11.9324 6.8821 12.2094 6.09375 12.7634C5.3054 13.3174 4.6875 14.0489 4.24006 14.958C3.79972 15.8671 3.57599 16.8614 3.56889 17.941V18.9424C3.56889 20.2421 3.79261 21.3785 4.24006 22.3515C4.6946 23.3174 5.33736 24.0667 6.16832 24.5993C6.99929 25.132 7.98295 25.3983 9.11932 25.3983C9.89347 25.3983 10.5717 25.2776 11.1541 25.0361C11.7436 24.7947 12.2372 24.4715 12.6349 24.0667C13.0398 23.6547 13.3452 23.2037 13.5511 22.7137L15.3516 23.2996C15.103 23.9885 14.6946 24.6242 14.1264 25.2066C13.5653 25.789 12.8622 26.2577 12.017 26.6128C11.179 26.9608 10.2131 27.1349 9.11932 27.1349ZM20.6315 16.5667V26.7939H18.7352V10.4303H20.5782V12.9978H20.7487C21.1322 12.1597 21.7288 11.4885 22.5385 10.9843C23.3552 10.4729 24.3637 10.2172 25.564 10.2172C26.6649 10.2172 27.6308 10.4481 28.4618 10.9097C29.2998 11.3643 29.9497 12.0354 30.4113 12.9232C30.8801 13.811 31.1145 14.9012 31.1145 16.1938V26.7939H29.2181V16.311C29.2181 14.9687 28.8417 13.9069 28.0889 13.1256C27.3431 12.3444 26.3417 11.9537 25.0846 11.9537C24.2252 11.9537 23.4618 12.1384 22.7941 12.5077C22.1265 12.877 21.5974 13.4097 21.2068 14.1057C20.8233 14.7947 20.6315 15.615 20.6315 16.5667ZM41.3536 10.4303V12.0816H33.5446V10.4303H41.3536ZM35.9842 6.50985H37.8912V22.5219C37.8912 23.2037 38.0084 23.74 38.2428 24.1306C38.4771 24.5141 38.7825 24.7876 39.1589 24.9509C39.5354 25.1072 39.9366 25.1853 40.3628 25.1853C40.6114 25.1853 40.8244 25.1711 41.002 25.1427C41.1795 25.1072 41.3358 25.0716 41.4707 25.0361L41.8756 26.7513C41.6909 26.8224 41.4636 26.8863 41.1937 26.9431C40.9239 27.007 40.5901 27.039 40.1923 27.039C39.4963 27.039 38.8251 26.8863 38.1788 26.5809C37.5396 26.2755 37.0141 25.8209 36.6021 25.2172C36.1902 24.6135 35.9842 23.8643 35.9842 22.9694V6.50985ZM44.4602 26.7939V10.4303H46.3032V12.9445H46.4417C46.7684 12.1206 47.3366 11.4566 48.1463 10.9523C48.963 10.441 49.8863 10.1853 50.9162 10.1853C51.0724 10.1853 51.2464 10.1888 51.4382 10.1959C51.6299 10.203 51.7897 10.2101 51.9176 10.2172V12.1455C51.8324 12.1313 51.6832 12.11 51.4701 12.0816C51.2571 12.0532 51.0262 12.039 50.7777 12.039C49.9254 12.039 49.1654 12.2201 48.4978 12.5823C47.8373 12.9374 47.3153 13.431 46.9318 14.0631C46.5483 14.6952 46.3565 15.4161 46.3565 16.2258V26.7939H44.4602ZM60.0713 27.1349C58.5443 27.1349 57.2233 26.7797 56.1082 26.0695C54.9931 25.3522 54.1302 24.3614 53.5194 23.0972C52.9157 21.8259 52.6139 20.3628 52.6139 18.708C52.6139 17.0603 52.9157 15.5972 53.5194 14.3188C54.1302 13.0333 54.9718 12.0283 56.0443 11.3039C57.1238 10.5724 58.3703 10.2066 59.7836 10.2066C60.6714 10.2066 61.5272 10.3699 62.3511 10.6966C63.175 11.0162 63.9136 11.5099 64.567 12.1775C65.2275 12.838 65.7495 13.6725 66.1331 14.681C66.5166 15.6824 66.7083 16.8685 66.7083 18.2393V19.1768H53.9243V17.5042H64.7694C64.7694 16.453 64.5564 15.5084 64.1302 14.6704C63.7112 13.8252 63.1252 13.1576 62.3724 12.6675C61.6267 12.1775 60.7637 11.9324 59.7836 11.9324C58.7467 11.9324 57.8341 12.2094 57.0457 12.7634C56.2574 13.3174 55.6395 14.0489 55.192 14.958C54.7517 15.8671 54.5279 16.8614 54.5208 17.941V18.9424C54.5208 20.2421 54.7446 21.3785 55.192 22.3515C55.6466 23.3174 56.2893 24.0667 57.1203 24.5993C57.9512 25.132 58.9349 25.3983 60.0713 25.3983C60.8454 25.3983 61.5237 25.2776 62.1061 25.0361C62.6956 24.7947 63.1892 24.4715 63.5869 24.0667C63.9917 23.6547 64.2971 23.2037 64.5031 22.7137L66.3035 23.2996C66.0549 23.9885 65.6466 24.6242 65.0784 25.2066C64.5173 25.789 63.8142 26.2577 62.969 26.6128C62.1309 26.9608 61.165 27.1349 60.0713 27.1349ZM75.93 33.2712C74.815 33.2712 73.8384 33.1256 73.0004 32.8344C72.1623 32.5503 71.4556 32.1597 70.8803 31.6626C70.305 31.1654 69.8576 30.6079 69.538 29.99L71.0934 28.9672C71.3278 29.3792 71.6403 29.784 72.0309 30.1817C72.4286 30.5795 72.9435 30.9097 73.5756 31.1725C74.2148 31.4353 74.9996 31.5667 75.93 31.5667C77.3789 31.5667 78.5472 31.2045 79.435 30.48C80.3299 29.7556 80.7773 28.6299 80.7773 27.1029V23.4168H80.6069C80.3867 23.914 80.0707 24.4111 79.6587 24.9083C79.2468 25.3983 78.707 25.8067 78.0394 26.1334C77.3789 26.4601 76.5586 26.6235 75.5785 26.6235C74.2717 26.6235 73.1104 26.3003 72.0948 25.654C71.0863 25.0077 70.2908 24.0844 69.7085 22.8841C69.1332 21.6768 68.8455 20.2385 68.8455 18.5695C68.8455 16.9147 69.1261 15.4587 69.6871 14.2016C70.2553 12.9445 71.0472 11.9644 72.0629 11.2613C73.0785 10.5581 74.261 10.2066 75.6104 10.2066C76.6119 10.2066 77.4428 10.3841 78.1033 10.7393C78.7638 11.0873 79.293 11.5205 79.6907 12.039C80.0955 12.5574 80.4116 13.0617 80.6388 13.5518H80.8306V10.4303H82.6843V27.2201C82.6843 28.605 82.3896 29.7449 81.8001 30.6398C81.2106 31.5347 80.408 32.1952 79.3924 32.6214C78.3768 33.0546 77.2227 33.2712 75.93 33.2712ZM75.8022 24.887C76.8533 24.887 77.7518 24.6349 78.4975 24.1306C79.2433 23.6192 79.815 22.8877 80.2127 21.936C80.6104 20.9843 80.8093 19.8515 80.8093 18.5376C80.8093 17.2591 80.614 16.1263 80.2234 15.1391C79.8327 14.1448 79.2646 13.3635 78.5188 12.7954C77.7802 12.2201 76.8746 11.9324 75.8022 11.9324C74.7085 11.9324 73.7852 12.2272 73.0323 12.8167C72.2795 13.4062 71.7113 14.2016 71.3278 15.203C70.9442 16.1974 70.7525 17.3089 70.7525 18.5376C70.7525 19.7876 70.9478 20.892 71.3384 21.8508C71.729 22.8025 72.3008 23.5482 73.0536 24.088C73.8065 24.6206 74.7227 24.887 75.8022 24.887Z" fill="#262626"/>
<path d="M90.2642 27.0709C89.2202 27.0709 88.2933 26.8969 87.4837 26.5489C86.6811 26.1938 86.0455 25.6611 85.5767 24.9509C85.1151 24.2336 84.8842 23.3351 84.8842 22.2556C84.8842 21.3465 85.044 20.5795 85.3636 19.9545C85.6832 19.3295 86.1236 18.8216 86.6847 18.431C87.2457 18.0404 87.892 17.7456 88.6236 17.5468C89.3551 17.3408 90.1364 17.2023 90.9673 17.1313C91.8977 17.0461 92.647 16.9573 93.2152 16.865C93.7834 16.7655 94.1953 16.627 94.451 16.4495C94.7138 16.2648 94.8452 16.0056 94.8452 15.6718V15.6185C94.8452 15.0716 94.657 14.6491 94.2805 14.3508C93.9041 14.0525 93.3963 13.9033 92.7571 13.9033C92.0682 13.9033 91.5142 14.0525 91.0952 14.3508C90.6761 14.6491 90.4098 15.061 90.2962 15.5866L85.4915 15.4161C85.6335 14.4218 85.9993 13.534 86.5888 12.7528C87.1854 11.9644 88.0021 11.3465 89.0391 10.8991C90.0831 10.4445 91.3366 10.2172 92.7997 10.2172C93.8438 10.2172 94.8061 10.3415 95.6868 10.5901C96.5675 10.8316 97.3345 11.1867 97.9879 11.6555C98.6413 12.1171 99.1456 12.6853 99.5007 13.36C99.8629 14.0347 100.044 14.8053 100.044 15.6718V26.7939H95.1435V24.5141H95.0156C94.7244 25.0681 94.3516 25.5368 93.897 25.9204C93.4496 26.3039 92.9205 26.5915 92.3097 26.7833C91.706 26.9751 91.0241 27.0709 90.2642 27.0709ZM91.8729 23.6618C92.4339 23.6618 92.9382 23.5482 93.3857 23.3209C93.8402 23.0937 94.2024 22.7812 94.4723 22.3834C94.7422 21.9786 94.8771 21.5099 94.8771 20.9772V19.4218C94.728 19.4999 94.5469 19.5709 94.3338 19.6349C94.1278 19.6988 93.9006 19.7591 93.652 19.816C93.4034 19.8728 93.1477 19.9225 92.8849 19.9651C92.6222 20.0077 92.37 20.0468 92.1286 20.0823C91.6385 20.1604 91.2195 20.2812 90.8714 20.4445C90.5305 20.6079 90.2678 20.8209 90.0831 21.0837C89.9055 21.3394 89.8168 21.6448 89.8168 21.9999C89.8168 22.5397 90.0085 22.9516 90.392 23.2357C90.7827 23.5198 91.2763 23.6618 91.8729 23.6618ZM109.668 27.1029C107.942 27.1029 106.461 26.7478 105.225 26.0376C103.997 25.3273 103.052 24.3401 102.392 23.0759C101.731 21.8046 101.401 20.3344 101.401 18.6654C101.401 16.9893 101.731 15.5191 102.392 14.2549C103.059 12.9836 104.007 11.9928 105.236 11.2826C106.472 10.5724 107.946 10.2172 109.657 10.2172C111.17 10.2172 112.487 10.4907 113.61 11.0376C114.739 11.5844 115.62 12.3586 116.252 13.36C116.891 14.3543 117.228 15.5226 117.264 16.865H112.395C112.296 16.0269 112.012 15.3699 111.543 14.8941C111.081 14.4182 110.478 14.1803 109.732 14.1803C109.128 14.1803 108.599 14.3508 108.144 14.6917C107.69 15.0255 107.335 15.5226 107.079 16.1831C106.831 16.8366 106.706 17.6462 106.706 18.6121C106.706 19.578 106.831 20.3948 107.079 21.0624C107.335 21.7229 107.69 22.2236 108.144 22.5645C108.599 22.8983 109.128 23.0653 109.732 23.0653C110.215 23.0653 110.641 22.9623 111.01 22.7563C111.387 22.5503 111.696 22.2485 111.937 21.8508C112.179 21.4459 112.331 20.9559 112.395 20.3806H117.264C117.214 21.73 116.877 22.909 116.252 23.9175C115.634 24.926 114.764 25.7108 113.642 26.2719C112.527 26.8259 111.202 27.1029 109.668 27.1029ZM108.645 26.7087H110.733L110.563 27.6675C111.344 27.7812 111.969 28.0617 112.438 28.5091C112.907 28.9637 113.144 29.5532 113.152 30.2776C113.159 31.3856 112.63 32.2591 111.564 32.8983C110.506 33.5447 109.032 33.8678 107.143 33.8678L107.122 31.7265C108.095 31.7265 108.848 31.6164 109.38 31.3962C109.913 31.176 110.19 30.8422 110.211 30.3948C110.233 29.9829 110.073 29.6526 109.732 29.404C109.391 29.1626 108.862 28.9956 108.144 28.9033L108.645 26.7087ZM123.343 27.0709C122.299 27.0709 121.372 26.8969 120.562 26.5489C119.76 26.1938 119.124 25.6611 118.655 24.9509C118.194 24.2336 117.963 23.3351 117.963 22.2556C117.963 21.3465 118.123 20.5795 118.442 19.9545C118.762 19.3295 119.202 18.8216 119.763 18.431C120.324 18.0404 120.971 17.7456 121.702 17.5468C122.434 17.3408 123.215 17.2023 124.046 17.1313C124.976 17.0461 125.726 16.9573 126.294 16.865C126.862 16.7655 127.274 16.627 127.53 16.4495C127.792 16.2648 127.924 16.0056 127.924 15.6718V15.6185C127.924 15.0716 127.735 14.6491 127.359 14.3508C126.983 14.0525 126.475 13.9033 125.836 13.9033C125.147 13.9033 124.593 14.0525 124.174 14.3508C123.755 14.6491 123.488 15.061 123.375 15.5866L118.57 15.4161C118.712 14.4218 119.078 13.534 119.667 12.7528C120.264 11.9644 121.081 11.3465 122.118 10.8991C123.162 10.4445 124.415 10.2172 125.878 10.2172C126.922 10.2172 127.885 10.3415 128.765 10.5901C129.646 10.8316 130.413 11.1867 131.066 11.6555C131.72 12.1171 132.224 12.6853 132.579 13.36C132.941 14.0347 133.123 14.8053 133.123 15.6718V26.7939H128.222V24.5141H128.094C127.803 25.0681 127.43 25.5368 126.976 25.9204C126.528 26.3039 125.999 26.5915 125.388 26.7833C124.784 26.9751 124.103 27.0709 123.343 27.0709ZM124.951 23.6618C125.512 23.6618 126.017 23.5482 126.464 23.3209C126.919 23.0937 127.281 22.7812 127.551 22.3834C127.821 21.9786 127.956 21.5099 127.956 20.9772V19.4218C127.806 19.4999 127.625 19.5709 127.412 19.6349C127.206 19.6988 126.979 19.7591 126.731 19.816C126.482 19.8728 126.226 19.9225 125.963 19.9651C125.701 20.0077 125.449 20.0468 125.207 20.0823C124.717 20.1604 124.298 20.2812 123.95 20.4445C123.609 20.6079 123.346 20.8209 123.162 21.0837C122.984 21.3394 122.895 21.6448 122.895 21.9999C122.895 22.5397 123.087 22.9516 123.471 23.2357C123.861 23.5198 124.355 23.6618 124.951 23.6618ZM123.076 8.40616L120.36 8.38485C120.36 6.94309 120.704 5.85289 121.393 5.11426C122.082 4.37562 122.92 4.00275 123.907 3.99565C124.433 3.99565 124.88 4.08088 125.25 4.25133C125.626 4.41468 125.956 4.61 126.24 4.83727C126.532 5.05744 126.802 5.25275 127.05 5.42321C127.306 5.58656 127.576 5.66823 127.86 5.66823C128.265 5.66113 128.563 5.51198 128.755 5.22079C128.954 4.9225 129.056 4.52122 129.064 4.01696L131.738 4.04892C131.716 5.47647 131.365 6.56667 130.683 7.31951C130.001 8.06525 129.17 8.44167 128.19 8.44877C127.65 8.45588 127.192 8.3742 126.816 8.20375C126.439 8.03329 126.113 7.83798 125.836 7.61781C125.566 7.39764 125.306 7.20588 125.058 7.04252C124.809 6.87207 124.536 6.78684 124.238 6.78684C123.89 6.78684 123.609 6.92889 123.396 7.21298C123.183 7.48997 123.076 7.8877 123.076 8.40616ZM142.746 27.1029C141.028 27.1029 139.55 26.7513 138.315 26.0482C137.086 25.338 136.138 24.3508 135.47 23.0866C134.81 21.8153 134.479 20.3415 134.479 18.6654C134.479 16.9822 134.81 15.5084 135.47 14.2442C136.138 12.9729 137.086 11.9857 138.315 11.2826C139.55 10.5724 141.028 10.2172 142.746 10.2172C144.465 10.2172 145.939 10.5724 147.168 11.2826C148.403 11.9857 149.352 12.9729 150.012 14.2442C150.68 15.5084 151.013 16.9822 151.013 18.6654C151.013 20.3415 150.68 21.8153 150.012 23.0866C149.352 24.3508 148.403 25.338 147.168 26.0482C145.939 26.7513 144.465 27.1029 142.746 27.1029ZM142.778 23.1718C143.403 23.1718 143.932 22.98 144.366 22.5965C144.799 22.213 145.129 21.6803 145.357 20.9985C145.591 20.3167 145.708 19.5283 145.708 18.6334C145.708 17.7243 145.591 16.9289 145.357 16.2471C145.129 15.5653 144.799 15.0326 144.366 14.6491C143.932 14.2655 143.403 14.0738 142.778 14.0738C142.132 14.0738 141.585 14.2655 141.138 14.6491C140.697 15.0326 140.36 15.5653 140.126 16.2471C139.898 16.9289 139.785 17.7243 139.785 18.6334C139.785 19.5283 139.898 20.3167 140.126 20.9985C140.36 21.6803 140.697 22.213 141.138 22.5965C141.585 22.98 142.132 23.1718 142.778 23.1718Z" fill="#262626"/>
</svg>
